# xmcd
#
# Track frame offsets: 
#        150
#        16185
#        31237
#        49755
#        63635
#        79572
#        91497
#        104095
#        122242
#        135665
#
# Disc length: 2004 seconds
#
# Revision: 4
# Processed by: cddbd v1.5PL3 Copyright (c) Steve Scherf et al.
# Submitted via: ExactAudioCopy v0.95a3
#
DISCID=8207d20a
DTITLE=Keith Whitley - I Wonder Do You Think Of Me
DYEAR=1989
DGENRE=Country
TTITLE0=Talk To Me Texas
TTITLE1=Between An Old Memory And Me
TTITLE2=It Ain't Nothin'
TTITLE3=I'm Over You
TTITLE4=Turn This Thing Around
TTITLE5=Lady's Choice
TTITLE6=Brother Jukebox
TTITLE7=Tennessee Courage
TTITLE8=Heartbreak Highway
TTITLE9=I Wonder Do You Think Of Me
EXTD=
EXTT0=C Putman - D Cook - B Jones
EXTT1=C Craig - D Stegall
EXTT2=T Haselden
EXTT3=T Nichols - Z Turner
EXTT4=G Nelson - G Harrison
EXTT5=B Rice - M Sharon Rice
EXTT6=P Craft
EXTT7=V Gosdin - R Gosdin - L Brown
EXTT8=L Wilson - D Perimer - B Mason
EXTT9=S Shafer
PLAYORDER=
